<svg width="245" height="214" viewBox="0 0 245 214" fill="none" xmlns="http://www.w3.org/2000/svg">
<path d="M138.9 194.32C138.376 194.5 137.956 194.904 137.756 195.422C137.552 195.95 137.592 196.544 137.866 197.037C142.066 204.624 149.458 206.328 155.251 206.328C158.927 206.328 161.964 205.641 163.132 205.336C163.462 205.252 163.727 205.007 163.841 204.688C163.956 204.364 163.906 204.006 163.707 203.731C154.043 190.417 142.276 193.159 138.9 194.32ZM139.21 196.299C139.155 196.2 139.145 196.08 139.185 195.975C139.205 195.92 139.265 195.816 139.395 195.771C140.778 195.297 142.9 194.764 145.453 194.764C150.177 194.764 156.365 196.593 162.009 204.035C158.003 204.948 145.098 206.932 139.21 196.299ZM211.062 174.412C197.937 166.691 188.973 173.37 186.54 175.598C186.151 175.957 185.941 176.465 185.961 176.999C185.986 177.542 186.246 178.041 186.675 178.37C189.907 180.842 193.268 181.734 196.439 181.734C203.506 181.734 209.614 177.308 211.177 176.077C211.437 175.872 211.582 175.548 211.557 175.219C211.537 174.88 211.352 174.581 211.062 174.412ZM187.614 177.148C187.514 177.074 187.499 176.969 187.499 176.929C187.499 176.874 187.509 176.794 187.579 176.725C189.402 175.055 193.288 172.278 198.926 172.278C201.983 172.278 205.559 173.096 209.604 175.344C206.478 177.637 196.419 183.893 187.614 177.148ZM231.394 147.236C217.295 142.879 210.333 151.168 208.535 153.815C208.246 154.244 208.156 154.777 208.3 155.281C208.445 155.794 208.81 156.208 209.294 156.427C211.532 157.429 213.684 157.843 215.712 157.843C224.197 157.843 230.485 150.575 231.888 148.811C232.093 148.551 232.158 148.213 232.058 147.894C231.958 147.584 231.714 147.335 231.394 147.236ZM209.924 155.032C209.824 154.987 209.789 154.897 209.779 154.862C209.764 154.817 209.759 154.742 209.809 154.673C211.467 152.23 215.707 147.505 223.628 147.505C225.581 147.505 227.758 147.794 230.18 148.472C227.718 151.353 219.672 159.398 209.924 155.032ZM201.458 126.654C201.129 126.679 200.829 126.858 200.664 127.142C193.383 139.465 199.675 147.889 201.778 150.176C202.108 150.535 202.567 150.735 203.057 150.735C203.081 150.735 203.106 150.735 203.136 150.735C203.661 150.71 204.14 150.461 204.46 150.047C211.991 140.252 203.99 129.156 202.312 127.033C202.103 126.774 201.788 126.634 201.458 126.654ZM203.236 149.115C203.181 149.19 203.106 149.204 203.061 149.204C203.017 149.204 202.957 149.199 202.907 149.145C200.494 146.523 195.635 139.34 201.583 128.623C203.771 131.609 209.519 140.945 203.236 149.115ZM193.987 138.782C193.982 138.782 193.977 138.782 193.972 138.782C193.647 138.782 193.343 138.941 193.153 139.205C184.897 150.899 190.491 159.802 192.399 162.254C192.713 162.658 193.188 162.897 193.702 162.917C193.722 162.917 193.747 162.917 193.767 162.917C194.267 162.917 194.741 162.708 195.076 162.339C203.376 153.182 196.299 141.478 194.796 139.225C194.621 138.951 194.317 138.787 193.987 138.782ZM193.942 161.307C193.877 161.377 193.802 161.382 193.762 161.382C193.717 161.382 193.657 161.367 193.612 161.307C191.42 158.496 187.155 150.949 193.957 140.746C195.89 143.906 200.864 153.671 193.942 161.307ZM184.797 148.362C184.468 148.332 184.148 148.472 183.938 148.731C174.944 159.872 179.948 169.113 181.696 171.68C181.986 172.104 182.44 172.373 182.955 172.428C183.014 172.433 183.074 172.438 183.134 172.438C183.594 172.438 184.033 172.263 184.363 171.939C193.233 163.341 186.935 151.203 185.582 148.856C185.417 148.571 185.122 148.387 184.797 148.362ZM183.294 170.838C183.229 170.903 183.149 170.908 183.109 170.903C183.064 170.898 183.01 170.883 182.965 170.818C180.962 167.872 177.191 160.066 184.638 150.321C186.366 153.601 190.696 163.665 183.294 170.838ZM169.16 180.737C169.345 180.797 169.535 180.827 169.72 180.827C170.039 180.827 170.359 180.737 170.644 180.568C181.182 174.108 177.691 160.888 176.882 158.306C176.782 157.997 176.537 157.753 176.222 157.653C175.908 157.554 175.563 157.624 175.308 157.828C164.096 166.735 166.953 176.849 168.097 179.735C168.286 180.209 168.671 180.578 169.16 180.737ZM175.643 159.538C176.612 163.112 178.635 173.878 169.84 179.267C169.755 179.317 169.675 179.297 169.645 179.292C169.605 179.277 169.55 179.247 169.525 179.177C168.216 175.862 166.249 167.423 175.643 159.538ZM152.23 187.247C152.315 187.781 152.634 188.249 153.104 188.523C153.398 188.698 153.728 188.787 154.063 188.787C154.267 188.787 154.477 188.753 154.677 188.683C167.537 184.222 166.898 169.173 166.643 166.202C166.613 165.868 166.424 165.574 166.129 165.405C165.834 165.24 165.475 165.225 165.17 165.375C151.001 172.328 151.685 183.873 152.23 187.247ZM165.165 167.099C165.375 171.072 165.11 183.439 154.173 187.237C154.078 187.272 153.978 187.262 153.888 187.207C153.833 187.172 153.763 187.113 153.743 186.998C153.114 183.085 152.989 173.415 165.165 167.099ZM210.024 136.877C210.333 137.127 210.713 137.261 211.102 137.261C211.212 137.261 211.327 137.251 211.437 137.231C211.946 137.132 212.386 136.813 212.636 136.359C218.579 125.657 209.105 115.952 207.147 114.118C206.907 113.893 206.572 113.799 206.253 113.873C205.928 113.943 205.664 114.167 205.539 114.472C200.22 127.611 207.626 134.943 210.024 136.877ZM206.677 115.792C209.259 118.409 216.241 126.704 211.297 135.616C211.252 135.696 211.177 135.721 211.147 135.726C211.107 135.736 211.047 135.736 210.992 135.691C208.241 133.473 202.427 127.152 206.677 115.792ZM240.948 110.22C230.675 110.932 226.345 116.525 224.562 120.433C225.536 116.909 226.35 113.3 226.994 109.622C227.254 108.056 227.459 106.456 227.658 104.916C227.763 104.084 227.873 103.251 227.993 102.389C228.138 100.834 228.253 99.2784 228.367 97.7282C228.427 96.8858 228.492 96.0483 228.557 95.2159C228.752 93.0127 228.802 90.655 228.712 87.7938C228.627 85.1669 228.452 82.7693 228.168 80.4714C227.963 78.6819 227.683 76.8475 227.359 74.9982C227.493 75.1877 227.668 75.3521 227.873 75.4718C228.128 75.6213 228.417 75.6961 228.707 75.6961C228.897 75.6961 229.082 75.6662 229.266 75.5964C239.685 71.8779 239.065 59.6805 238.835 57.2729C238.806 56.9589 238.621 56.6747 238.336 56.5202C238.051 56.3657 237.717 56.3557 237.427 56.5003C227.838 61.3055 226.729 68.6578 226.899 72.5259C226.475 70.4074 225.995 68.269 225.426 66.1057C224.832 63.8277 224.142 61.5597 223.378 59.3016C223.523 59.4262 223.683 59.5359 223.868 59.6057C224.057 59.6755 224.252 59.7154 224.447 59.7154C224.717 59.7154 224.986 59.6456 225.231 59.511C234.515 54.3668 232.023 42.9121 231.429 40.6691C231.349 40.365 231.119 40.1158 230.82 40.0111C230.515 39.9064 230.185 39.9513 229.931 40.1407C221.89 45.9727 221.71 52.8316 222.394 56.57C221.86 55.1345 221.301 53.7039 220.696 52.2932C218.739 47.7024 216.516 43.3358 214.094 39.3132C213.17 37.763 212.181 36.2178 211.122 34.6626C211.297 34.7772 211.497 34.857 211.707 34.8869C211.786 34.9018 211.866 34.9068 211.946 34.9068C212.311 34.9068 212.665 34.7772 212.94 34.533C220.072 28.347 215.792 18.8513 214.863 17.012C214.723 16.7378 214.458 16.5484 214.149 16.5085C213.834 16.4637 213.53 16.5783 213.325 16.8076C206.847 23.9805 208.8 30.4855 210.178 33.2868C208.82 31.3578 207.347 29.4138 205.743 27.4149C204.7 26.1189 203.601 24.8478 202.477 23.5917C202.622 23.6416 202.772 23.6715 202.927 23.6715C202.967 23.6715 203.007 23.6715 203.047 23.6665C203.476 23.6316 203.861 23.4123 204.11 23.0584C209.08 16.04 203.236 8.57301 202.018 7.1474C201.823 6.91811 201.523 6.79349 201.219 6.82839C200.914 6.85829 200.644 7.03774 200.499 7.30691C196.993 13.8168 198.657 18.632 200.365 21.2888C197.977 18.7716 195.43 16.3291 192.728 13.9764C192.958 14.1508 193.233 14.2455 193.517 14.2455C193.602 14.2455 193.687 14.2356 193.772 14.2206C194.162 14.1458 194.496 13.9016 194.691 13.5576C198.267 7.14242 192.628 1.3403 191.465 0.243685C191.25 0.0393147 190.945 -0.0404394 190.656 0.0193762C190.366 0.0841764 190.121 0.283562 190.011 0.562701C187.215 7.43651 190.281 11.6635 192.044 13.3782C190.421 11.9875 188.753 10.6317 187.025 9.30575C187.02 9.21104 187.005 9.11633 186.975 9.02162C184.937 1.97834 176.852 1.85871 175.238 1.91852C174.944 1.92849 174.669 2.08301 174.509 2.33225C174.349 2.58148 174.324 2.89551 174.439 3.16966C177.746 10.9557 183.993 10.9307 185.826 10.7363C185.856 10.7314 185.886 10.7264 185.916 10.7214C187.13 11.823 188.288 12.9196 189.417 14.0112C184.822 10.5519 178.759 13.0442 177.466 13.6474C177.196 13.772 177.011 14.0212 176.961 14.3103C176.911 14.6044 177.011 14.8985 177.226 15.1079C180.283 18.0388 183.244 18.8812 185.641 18.8812C188.039 18.8812 189.872 18.0388 190.676 17.5902C191.015 17.4008 191.255 17.0718 191.33 16.683C191.4 16.3141 191.31 15.9353 191.085 15.6362C193.088 17.6351 194.956 19.6239 196.704 21.6178C191.784 19.2351 186.336 22.2459 185.147 22.9786C184.892 23.1331 184.733 23.4023 184.723 23.7014C184.708 24.0005 184.842 24.2846 185.077 24.464C187.989 26.6772 190.651 27.385 192.878 27.385C195.925 27.385 198.147 26.0541 199.031 25.4161C199.226 25.2765 199.371 25.0821 199.466 24.8678C200.714 26.408 201.898 27.9483 203.017 29.5035C203.901 30.6998 204.755 31.926 205.589 33.1672C200.764 28.2075 192.958 29.5135 191.225 29.8773H191.22C190.92 29.9421 190.666 30.1515 190.551 30.4406C190.431 30.7297 190.466 31.0537 190.636 31.3129C194.696 37.4988 199.635 38.8148 203.106 38.8148C204.75 38.8148 206.063 38.5207 206.792 38.3063C207.217 38.1817 207.561 37.8777 207.741 37.4739C207.856 37.2197 207.886 36.9406 207.851 36.6714C211.207 42.1096 214.104 47.8968 216.491 53.983C217.05 55.4335 217.56 56.8891 218.054 58.3446C214.009 49.8508 203.361 50.2545 201.164 50.434C200.849 50.4589 200.569 50.6383 200.41 50.9175C200.25 51.1966 200.24 51.5306 200.38 51.8147C204.7 60.6824 211.372 62.098 215.193 62.098C216.127 62.098 216.891 62.0133 217.405 61.9335C217.87 61.8587 218.274 61.5846 218.519 61.1808C218.659 60.9515 218.729 60.6923 218.744 60.4282C220.926 67.3219 222.359 74.2206 223.019 81.0047C223.548 86.3981 223.633 90.7746 223.278 94.7723C223.208 95.6147 223.138 96.4571 223.074 97.3045C222.954 98.8098 222.834 100.32 222.689 101.786C222.649 102.06 222.614 102.339 222.574 102.613C222.619 92.4893 212.156 87.6443 209.929 86.7271C209.629 86.6075 209.289 86.6374 209.02 86.8168C208.745 86.9963 208.58 87.2953 208.575 87.6193C208.3 101.173 217.42 105.21 220.222 106.127C220.392 106.182 220.566 106.212 220.741 106.212C221.051 106.212 221.361 106.127 221.63 105.958C221.87 105.808 222.06 105.604 222.2 105.365C222.045 106.481 221.885 107.613 221.7 108.719C220.157 117.941 217.43 126.873 213.574 135.307C213.215 136.185 212.77 137.052 212.341 137.894L212.081 138.403C211.891 138.772 211.702 139.145 211.517 139.514C211.182 140.182 210.843 140.85 210.498 141.488L208.74 144.514C208.63 144.698 208.525 144.883 208.42 145.067C208.241 145.381 208.061 145.695 207.866 145.999L206.897 147.475C204.675 150.984 202.023 154.528 198.542 158.63C195.295 162.479 191.57 165.953 188.688 168.55C185.267 171.605 181.536 174.501 177.596 177.168C173.855 179.73 169.785 182.168 165.49 184.401C163.767 185.278 161.484 186.42 159.102 187.457C157.179 188.299 154.897 189.266 152.524 190.039L152.949 191.509C153.853 191.285 154.767 191.036 155.691 190.766C155.426 191.006 155.231 191.315 155.141 191.669C155.012 192.197 155.121 192.745 155.441 193.184C159.297 198.443 164.621 199.893 169.335 199.893C174.11 199.893 178.255 198.403 179.603 197.859C179.913 197.735 180.138 197.466 180.208 197.142C180.278 196.813 180.188 196.474 179.958 196.23C173.081 188.907 166.174 188.115 161.424 188.842C163.072 188.219 164.79 187.526 166.603 186.734C168.751 185.792 170.933 184.735 173.126 183.583C172.856 183.748 172.616 183.898 172.417 184.032C171.977 184.326 171.692 184.8 171.638 185.333C171.583 185.871 171.767 186.405 172.142 186.794C175.778 190.547 180.013 191.753 183.958 191.753C189.922 191.753 195.211 188.997 196.714 188.139C197.003 187.975 197.188 187.681 197.218 187.347C197.248 187.013 197.108 186.689 196.844 186.475C187.07 178.579 178.654 180.797 174.474 182.851C176.127 181.959 177.781 181.026 179.439 180.024H179.444C186.156 175.927 192.314 171.142 197.837 165.788C197.733 166.058 197.688 166.347 197.723 166.641C197.788 167.169 198.077 167.638 198.522 167.927C201.398 169.806 204.285 170.514 207.007 170.514C214.369 170.514 220.526 165.315 222.025 163.939C222.269 163.715 222.384 163.391 222.339 163.062C222.294 162.733 222.085 162.449 221.79 162.299C211.222 157.105 203.886 160.579 200.24 163.381C200.804 162.798 201.368 162.214 201.918 161.621C205.738 157.414 208.62 153.765 210.972 150.162L211.996 148.661C212.226 148.322 212.436 147.973 212.646 147.624C212.75 147.445 212.86 147.265 212.975 147.081L214.868 143.956C215.263 143.268 215.632 142.565 216.002 141.862C216.201 141.488 216.396 141.114 216.601 140.736L216.876 140.222C217.1 139.803 217.325 139.38 217.545 138.951C217.26 139.564 217.05 140.103 216.906 140.511C216.736 141.005 216.791 141.543 217.06 141.992C217.335 142.445 217.795 142.759 218.319 142.839C219.238 142.984 220.122 143.053 220.971 143.053C231.764 143.053 237.127 131.998 238.151 129.625C238.281 129.321 238.251 128.977 238.076 128.698C237.897 128.419 237.592 128.239 237.262 128.229C224.996 127.781 219.777 134.49 217.765 138.497C217.934 138.154 218.104 137.81 218.254 137.461C220.287 133.169 222.035 128.683 223.493 124.032C223.528 124.321 223.633 124.6 223.813 124.835C224.117 125.238 224.582 125.488 225.091 125.513C225.376 125.527 225.661 125.537 225.94 125.532C237.018 125.532 241.213 113.873 241.957 111.486C242.052 111.177 241.987 110.843 241.787 110.589C241.587 110.334 241.273 110.195 240.948 110.22ZM237.367 58.2549C237.537 61.6494 237.222 71.1252 228.747 74.1508C228.702 74.1658 228.662 74.1509 228.647 74.1409C228.607 74.116 228.602 74.091 228.602 74.0811C228.073 70.9856 227.908 63.3741 237.367 58.2549ZM230.14 41.8903C230.83 45.1054 231.953 54.0229 224.412 58.1701C224.387 58.1601 224.382 58.1452 224.377 58.1402C223.403 55.3139 222.065 48.1859 230.14 41.8903ZM213.869 18.5174C215.073 21.2589 217.485 28.5315 211.951 33.3566C210.598 31.0986 208.231 25.3014 213.869 18.5174ZM201.418 8.87209C203.081 11.0753 206.577 16.7877 202.912 22.0864C201.239 20.3617 198.067 15.8605 201.418 8.87209ZM191.08 2.06806C192.693 3.83262 195.81 8.07953 193.448 12.6155C191.894 11.2797 189.103 7.91005 191.08 2.06806ZM176.262 3.45379C178.654 3.55847 183.869 4.35601 185.417 9.226C183.369 9.38052 179.014 8.97676 176.262 3.45379ZM186.8 23.811C188.973 22.6895 194.062 20.7156 197.947 24.3095C196.214 25.4859 192.099 27.3701 186.8 23.811ZM192.439 31.2132C195.405 30.7496 203.086 30.2661 206.368 36.8309C203.866 37.5636 197.608 38.426 192.439 31.2132ZM217.175 60.4232C214.214 60.8867 206.947 60.9515 202.158 51.9144C205.449 51.7998 214.443 52.2534 217.22 60.3235L217.944 60.0742L217.175 60.4232ZM220.901 104.537C220.891 104.607 220.846 104.647 220.821 104.662C220.781 104.687 220.741 104.692 220.701 104.677C217.51 103.635 210.213 99.9912 210.108 88.4817C213.34 89.9671 222.269 94.9866 220.901 104.537ZM178.3 196.723C174.649 198.044 163.237 201.224 156.685 192.287C156.61 192.187 156.625 192.082 156.635 192.042C156.65 191.988 156.685 191.913 156.77 191.868C160.196 190.188 169.055 187.357 178.3 196.723ZM195.27 187.192C191.839 189.002 180.967 193.707 173.251 185.742C173.166 185.652 173.166 185.547 173.171 185.508C173.176 185.453 173.201 185.373 173.281 185.318C176.442 183.18 184.832 179.172 195.27 187.192ZM218.359 141.015C219.553 137.57 223.638 129.739 236.069 129.739C236.184 129.739 236.298 129.739 236.413 129.739C234.785 133.154 229.117 143.009 218.564 141.329C218.454 141.314 218.399 141.239 218.379 141.204C218.359 141.164 218.334 141.094 218.359 141.015ZM179.019 14.6592C181.257 13.8168 186.366 12.5009 189.712 16.374C187.894 17.3161 183.724 18.6569 179.019 14.6592ZM211.192 161.128C213.854 161.128 216.926 161.741 220.402 163.341C217.52 165.798 208.315 172.488 199.366 166.651C199.276 166.591 199.256 166.501 199.251 166.461C199.246 166.411 199.251 166.342 199.311 166.282C201.069 164.408 205.029 161.128 211.192 161.128ZM216.861 136.833C216.466 137.74 215.987 138.637 215.522 139.509L215.253 140.018C215.048 140.397 214.848 140.77 214.648 141.149C214.284 141.837 213.919 142.525 213.544 143.183L211.667 146.283C211.552 146.468 211.442 146.652 211.327 146.842C211.132 147.166 210.942 147.49 210.728 147.804L209.694 149.319C207.372 152.868 204.54 156.457 200.779 160.599C194.376 167.568 186.925 173.669 178.64 178.728C176.852 179.81 175.059 180.832 173.281 181.784C175.064 180.697 176.792 179.586 178.455 178.444C182.45 175.748 186.236 172.807 189.707 169.701C192.628 167.069 196.404 163.545 199.705 159.627C203.231 155.47 205.928 151.871 208.181 148.312L209.145 146.847C209.359 146.518 209.554 146.179 209.749 145.835C209.849 145.66 209.949 145.481 210.058 145.302L211.831 142.251C212.196 141.578 212.541 140.9 212.885 140.217C213.07 139.848 213.255 139.484 213.445 139.116L213.704 138.607C214.149 137.74 214.608 136.838 214.978 135.93C218.873 127.407 221.645 118.34 223.208 108.988C223.463 107.498 223.668 105.978 223.863 104.512C223.978 103.68 224.087 102.847 224.212 101.985C224.362 100.475 224.482 98.9594 224.607 97.4391C224.672 96.5967 224.742 95.7592 224.812 94.9168C225.171 90.8244 225.086 86.3582 224.547 80.8701C223.673 71.833 221.445 62.6064 217.924 53.4397C214.408 44.4624 209.809 36.1081 204.265 28.6063C203.066 26.9414 201.798 25.2865 200.445 23.6366C201.873 25.1918 203.236 26.7769 204.535 28.3869C207.776 32.4145 210.468 36.2477 212.77 40.1058C215.158 44.0686 217.35 48.3703 219.278 52.8964C221.171 57.3327 222.739 61.9036 223.938 66.4945C225.211 71.3445 226.115 76.1048 226.634 80.6508C226.914 82.9138 227.089 85.2666 227.169 87.8436C227.254 90.645 227.209 92.9479 227.019 95.0913C226.954 95.9337 226.889 96.7761 226.829 97.6185C226.714 99.1637 226.605 100.704 226.46 102.214C226.345 103.052 226.235 103.889 226.13 104.727C225.935 106.257 225.73 107.837 225.476 109.372C223.773 119.117 220.876 128.349 216.861 136.833ZM225.176 123.982C225.106 123.977 225.061 123.937 225.046 123.912C225.016 123.878 225.011 123.838 225.021 123.793C225.775 120.528 228.762 112.946 240.234 111.815C239.035 115.164 234.83 124.496 225.176 123.982ZM207.531 101.781C205.139 115.125 213.515 120.538 216.137 121.879C216.376 121.998 216.636 122.063 216.896 122.063C217.12 122.063 217.34 122.018 217.555 121.929C218.024 121.734 218.374 121.34 218.524 120.857C221.98 109.671 211.202 102.449 209.01 101.113C208.735 100.943 208.39 100.923 208.096 101.058C207.801 101.188 207.586 101.462 207.531 101.781ZM208.905 102.862C211.866 104.836 219.902 111.182 217.055 120.403C217.035 120.473 216.986 120.503 216.956 120.513C216.911 120.533 216.871 120.533 216.836 120.513C213.844 118.983 207.207 114.247 208.905 102.862ZM244.704 90.3011C244.469 90.0718 244.139 89.9771 243.82 90.0369C230.495 92.6588 228.487 102.414 228.188 105.34C228.138 105.833 228.308 106.322 228.657 106.676C228.982 107.01 229.421 107.194 229.886 107.194C229.926 107.194 229.971 107.194 230.011 107.189C241.707 106.337 244.534 93.6956 244.983 91.1684C245.043 90.8544 244.938 90.5304 244.704 90.3011ZM229.901 105.664C229.826 105.664 229.781 105.634 229.761 105.609C229.731 105.574 229.716 105.539 229.721 105.494C230.061 102.16 232.073 94.2639 243.315 91.7117C242.546 95.186 239.54 104.961 229.901 105.664ZM228.907 89.4985C228.977 89.987 229.256 90.4207 229.676 90.6849C229.951 90.8593 230.27 90.9491 230.585 90.9491C230.76 90.9491 230.94 90.9241 231.109 90.8643C242.272 87.2754 242.022 74.3253 241.862 71.7632C241.842 71.4392 241.662 71.1501 241.383 70.9856C241.103 70.8161 240.753 70.8012 240.464 70.9358C228.138 76.6332 228.502 86.5875 228.907 89.4985ZM240.364 72.6904C240.444 76.2444 239.839 86.4529 230.64 89.4138C230.57 89.4387 230.52 89.4138 230.49 89.3939C230.45 89.3689 230.43 89.334 230.42 89.2942C229.966 85.9744 230.051 77.8245 240.364 72.6904ZM221.201 90.9241C221.301 90.9391 221.395 90.9491 221.495 90.9491C221.885 90.9491 222.269 90.8145 222.574 90.5553C222.964 90.2313 223.188 89.7528 223.188 89.2493C223.208 77.5454 210.788 73.787 208.3 73.1489C207.986 73.0692 207.656 73.1489 207.412 73.3633C207.167 73.5776 207.042 73.9016 207.082 74.2206C208.705 87.6841 218.299 90.4107 221.201 90.9241ZM221.65 89.2493C221.65 89.3191 221.61 89.364 221.585 89.3839C221.55 89.4138 221.51 89.4238 221.465 89.4188C218.159 88.8306 210.423 86.2436 208.71 74.8587C212.121 75.8805 221.67 79.5991 221.65 89.2493ZM205.349 62.2326C205.034 62.2077 204.725 62.3522 204.525 62.6015C204.325 62.8557 204.265 63.1896 204.365 63.4987C208.191 75.4369 217.28 76.4637 220.252 76.4587C220.312 76.4587 220.367 76.4587 220.422 76.4587C220.901 76.4538 221.351 76.2344 221.66 75.8606C221.97 75.4818 222.095 74.9883 222.005 74.5048C219.937 63.6582 207.776 62.3771 205.349 62.2326ZM220.472 74.8936C220.442 74.9285 220.412 74.9285 220.402 74.9285C217.245 74.9633 209.699 73.9515 206.098 63.8327C209.484 64.1866 218.813 65.9711 220.497 74.7939C220.507 74.8437 220.482 74.8786 220.472 74.8936ZM218.029 46.2519C218.249 46.6506 218.639 46.9298 219.088 47.0145C219.188 47.0344 219.288 47.0444 219.388 47.0444C219.747 47.0444 220.092 46.9248 220.377 46.6955C228.188 40.37 223.983 30.1016 223.059 28.1078C222.929 27.8237 222.664 27.6243 222.354 27.5744C222.045 27.5246 221.725 27.6243 221.51 27.8536C213.43 36.2028 216.806 44.0486 218.029 46.2519ZM222.015 29.5583C223.193 32.4843 225.616 40.4846 219.413 45.5042L219.378 45.5091C218.009 43.0517 215.612 36.6863 222.015 29.5583ZM212.755 49.8209C213.195 49.6962 213.554 49.3822 213.739 48.9685C213.929 48.5448 213.919 48.0613 213.714 47.6426C209.299 38.6154 198.332 40.3999 196.174 40.8485C195.87 40.9133 195.615 41.1227 195.49 41.4118C195.37 41.7009 195.4 42.0349 195.57 42.299C199.895 48.9436 205.184 50.3492 208.885 50.3492C210.608 50.3442 211.981 50.0402 212.755 49.8209ZM197.353 42.1894C200.469 41.7009 208.83 41.1476 212.331 48.3504C209.624 49.118 202.872 50.0202 197.353 42.1894ZM127.603 200.093C132.388 196.563 138.486 193.927 145.752 192.247C146.282 192.127 146.631 191.644 146.596 191.105C146.556 190.572 146.142 190.148 145.602 190.108C144.589 190.024 143.115 189.969 141.317 190.064C151.466 185.388 152.125 172.642 152.15 169.921C152.15 169.587 151.99 169.273 151.71 169.083C151.431 168.889 151.076 168.844 150.761 168.964C135.998 174.551 135.589 186.111 135.819 189.52C135.849 189.959 136.038 190.363 136.348 190.672C132.298 191.449 127.468 193.054 122.504 196.249C117.535 193.054 112.71 191.449 108.66 190.672C108.964 190.363 109.159 189.959 109.189 189.515C109.414 186.106 109.009 174.546 94.2463 168.959C93.9316 168.839 93.577 168.884 93.2974 169.078C93.0227 169.273 92.8579 169.587 92.8629 169.916C92.8829 172.637 93.5421 185.388 103.7 190.059C101.898 189.964 100.424 190.019 99.4104 190.098C98.876 190.143 98.4565 190.562 98.4165 191.1C98.3765 191.639 98.7311 192.117 99.2605 192.242C106.527 193.922 112.625 196.559 117.41 200.088C115.082 202.116 112.88 204.444 110.857 207.011C110.028 208.063 109.749 209.414 110.078 210.715C110.418 212.041 111.332 213.107 112.59 213.646C113.145 213.885 113.729 214 114.313 214C114.868 214 115.417 213.895 115.946 213.681C117.015 213.252 117.844 212.44 118.289 211.388C118.978 209.763 120.256 207.34 122.514 204.748C124.771 207.34 126.05 209.763 126.739 211.388C127.184 212.435 128.013 213.252 129.081 213.681C130.17 214.119 131.359 214.104 132.437 213.646C133.696 213.107 134.61 212.041 134.95 210.715C135.284 209.414 135 208.063 134.171 207.011C132.133 204.449 129.93 202.121 127.603 200.093ZM150.592 170.673C150.427 174.651 148.999 186.938 137.751 189.69C137.652 189.71 137.552 189.695 137.472 189.635C137.417 189.595 137.357 189.53 137.347 189.416C137.087 185.458 137.876 175.822 150.592 170.673ZM94.4061 170.673C107.127 175.822 107.911 185.458 107.651 189.416C107.641 189.53 107.581 189.595 107.526 189.635C107.446 189.695 107.346 189.715 107.246 189.69C95.9993 186.938 94.5709 174.651 94.4061 170.673ZM133.446 210.341C133.227 211.198 132.632 211.891 131.818 212.24C131.119 212.539 130.345 212.549 129.641 212.265C128.956 211.991 128.422 211.468 128.137 210.8C127.348 208.93 125.825 206.074 123.063 203.088L122.499 202.48L121.935 203.088C119.173 206.079 117.649 208.93 116.86 210.8C116.576 211.473 116.041 211.991 115.357 212.265C114.653 212.549 113.879 212.539 113.18 212.24C112.366 211.891 111.771 211.198 111.551 210.341C111.337 209.504 111.516 208.636 112.046 207.963C114.213 205.207 116.591 202.744 119.108 200.641L119.837 200.033L119.088 199.45C114.708 196.03 109.209 193.383 102.712 191.549C107.241 191.669 114.503 192.8 122.069 197.8L122.494 198.079L122.918 197.8C130.485 192.805 137.746 191.669 142.276 191.549C135.779 193.378 130.285 196.03 125.9 199.45L125.151 200.033L125.88 200.641C128.397 202.744 130.774 205.207 132.942 207.963C133.476 208.636 133.661 209.504 133.446 210.341ZM106.103 194.32C102.727 193.164 90.9601 190.422 81.3011 203.731C81.1014 204.006 81.0514 204.364 81.1663 204.688C81.2812 205.007 81.5458 205.252 81.8705 205.336C83.0391 205.645 86.0757 206.328 89.7514 206.328C95.5448 206.328 102.931 204.624 107.137 197.037C107.411 196.539 107.451 195.95 107.246 195.422C107.042 194.904 106.627 194.5 106.103 194.32ZM105.788 196.299C99.8998 206.927 86.9946 204.948 82.9842 204.03C91.6792 192.576 101.663 194.42 105.603 195.771C105.733 195.816 105.788 195.915 105.813 195.975C105.853 196.08 105.843 196.2 105.788 196.299ZM89.5567 193.194C89.8763 192.755 89.9862 192.202 89.8563 191.679C89.7664 191.325 89.5716 191.016 89.307 190.776C90.2309 191.046 91.1448 191.295 92.0488 191.519L92.4733 190.049C90.101 189.271 87.8187 188.309 85.8959 187.467C83.5136 186.435 81.2362 185.293 79.5182 184.416C75.2231 182.178 71.1478 179.745 67.4021 177.178C63.4666 174.516 59.7359 171.62 56.3148 168.565C53.4331 165.968 49.7074 162.494 46.4611 158.64C42.9801 154.543 40.3281 150.999 38.1007 147.475L37.1368 146.004C36.937 145.705 36.7622 145.391 36.5824 145.077C36.4775 144.893 36.3727 144.703 36.2678 144.529L34.5198 141.513C34.1652 140.86 33.8306 140.197 33.496 139.529C33.3062 139.155 33.1164 138.782 32.9266 138.413L32.6619 137.889C32.2324 137.052 31.7879 136.185 31.4183 135.282C27.5777 126.878 24.8509 117.946 23.3076 108.724C23.1179 107.613 22.958 106.486 22.8082 105.37C22.948 105.609 23.1378 105.813 23.3776 105.963C23.6472 106.132 23.9569 106.217 24.2665 106.217C24.4413 106.217 24.6161 106.187 24.7859 106.132C27.5877 105.215 36.7073 101.178 36.4326 87.6243C36.4276 87.3003 36.2578 87.0012 35.9881 86.8218C35.7184 86.6423 35.3788 86.6124 35.0741 86.7321C32.8517 87.6443 22.3987 92.4893 22.4286 102.603C22.3937 102.339 22.3537 102.075 22.3188 101.821C22.1689 100.315 22.0491 98.7999 21.9242 97.2845C21.8593 96.4471 21.7894 95.6097 21.7195 94.7773C21.3699 90.7796 21.4498 86.4081 21.9792 81.0097C22.6384 74.2256 24.0718 67.3319 26.2543 60.4331C26.2692 60.6973 26.3392 60.9565 26.479 61.1858C26.7237 61.5896 27.1283 61.8637 27.5927 61.9385C28.1121 62.0183 28.8713 62.103 29.8052 62.103C33.6258 62.103 40.3031 60.6824 44.6182 51.8197C44.758 51.5356 44.748 51.1966 44.5882 50.9225C44.4334 50.6483 44.1487 50.4639 43.8341 50.4389C41.6366 50.2595 30.9838 49.8557 26.9435 58.3545C27.4329 56.899 27.9473 55.4485 28.5067 53.993C30.8939 47.9018 33.7906 42.1146 37.1468 36.6764C37.1118 36.9455 37.1418 37.2197 37.2566 37.4739C37.4364 37.8777 37.781 38.1817 38.2056 38.3063C38.9397 38.5207 40.2482 38.8148 41.8913 38.8148C45.3623 38.8148 50.3017 37.4988 54.362 31.3129C54.5318 31.0537 54.5618 30.7297 54.4419 30.4406C54.3271 30.1565 54.0724 29.9471 53.7677 29.8773C52.0347 29.5135 44.2336 28.2075 39.4042 33.1672C40.2432 31.926 41.0922 30.6948 41.9812 29.4985C43.0949 27.9483 44.2786 26.408 45.5272 24.8728C45.622 25.0871 45.7669 25.2815 45.9617 25.4211C46.8456 26.0591 49.0681 27.39 52.1146 27.39C54.342 27.39 57.009 26.6772 59.9207 24.469C60.1554 24.2896 60.2902 24.0005 60.2752 23.7064C60.2603 23.4073 60.1004 23.1381 59.8507 22.9836C58.6571 22.2558 53.2133 19.2401 48.294 21.6228C50.047 19.6289 51.9098 17.6401 53.9175 15.6412C53.6928 15.9403 53.6029 16.3191 53.6728 16.688C53.7477 17.0718 53.9825 17.4058 54.3271 17.5952C55.1311 18.0438 56.969 18.8862 59.3613 18.8862C61.7585 18.8862 64.7201 18.0438 67.7766 15.1128C67.9914 14.9085 68.0913 14.6094 68.0413 14.3153C67.9914 14.0212 67.8066 13.772 67.5369 13.6474C66.2434 13.0442 60.1804 10.5519 55.5856 14.0112C56.7193 12.9196 57.878 11.823 59.0916 10.7214C59.1216 10.7264 59.1515 10.7314 59.1865 10.7363C61.0194 10.9307 67.2672 10.9557 70.5734 3.16966C70.6883 2.89551 70.6633 2.58646 70.4985 2.33225C70.3387 2.08301 70.069 1.92849 69.7693 1.91852C68.1612 1.86868 60.0705 1.98332 58.0478 9.04156C58.0228 9.13627 58.0078 9.23098 57.9979 9.3207C56.2698 10.6466 54.5968 12.0024 52.9786 13.3931C54.7416 11.6784 57.8131 7.45147 55.0113 0.577655C54.9014 0.3035 54.6617 0.0991303 54.367 0.0343301C54.0774 -0.0254855 53.7727 0.0542686 53.5579 0.258639C52.3893 1.35526 46.7557 7.15737 50.3316 13.5726C50.5264 13.9215 50.861 14.1608 51.2506 14.2356C51.3355 14.2505 51.4204 14.2605 51.5053 14.2605C51.79 14.2605 52.0647 14.1608 52.2944 13.9913C49.5925 16.3441 47.0454 18.7865 44.6532 21.3038C46.3612 18.642 48.0243 13.8318 44.5183 7.31688C44.3735 7.04771 44.1038 6.86826 43.7991 6.83836C43.4945 6.80845 43.1948 6.92808 43.005 7.15239C41.7815 8.57799 35.9382 16.045 40.9075 23.0683C41.1572 23.4172 41.5417 23.6416 41.9712 23.6765C42.0112 23.6814 42.0511 23.6814 42.0911 23.6814C42.2459 23.6814 42.3957 23.6515 42.5406 23.6017C41.4169 24.8628 40.3181 26.1339 39.2743 27.4249C37.6712 29.4187 36.1979 31.3677 34.8394 33.2918C36.2178 30.4904 38.1656 23.9805 31.688 16.8126C31.4783 16.5833 31.1686 16.4687 30.864 16.5135C30.5593 16.5534 30.2896 16.7428 30.1498 17.017C29.2209 18.8563 24.9408 28.352 32.0726 34.538C32.3523 34.7772 32.7019 34.9118 33.0664 34.9118C33.1464 34.9118 33.2263 34.9068 33.3062 34.8919C33.5159 34.857 33.7157 34.7772 33.8905 34.6676C32.8317 36.2228 31.8428 37.768 30.9189 39.3132C28.4917 43.3408 26.2692 47.7074 24.3115 52.2932C23.7072 53.7039 23.1528 55.1345 22.6134 56.57C23.2976 52.8316 23.1179 45.9727 15.0771 40.1407C14.8174 39.9513 14.4877 39.9064 14.1881 40.0111C13.8884 40.1158 13.6587 40.36 13.5788 40.6691C12.9845 42.9121 10.4923 54.3668 19.7767 59.511C20.0214 59.6456 20.2911 59.7154 20.5608 59.7154C20.7556 59.7154 20.9553 59.6805 21.1401 59.6057C21.3249 59.5359 21.4847 59.4262 21.6246 59.3016C20.8554 61.5547 20.1712 63.8277 19.5769 66.1007C19.0076 68.264 18.5281 70.4074 18.1036 72.5209C18.2734 68.6528 17.1647 61.2955 7.57568 56.4903C7.291 56.3457 6.95139 56.3557 6.66672 56.5102C6.38704 56.6648 6.20225 56.9489 6.16729 57.2629C5.93755 59.6705 5.31826 71.8729 15.7363 75.5864C15.9161 75.6512 16.1059 75.6861 16.2957 75.6861C16.5853 75.6861 16.875 75.6114 17.1297 75.4618C17.3345 75.3422 17.5093 75.1777 17.6441 74.9883C17.3245 76.8376 17.0398 78.6669 16.8351 80.4564C16.5504 82.7643 16.3756 85.1619 16.2907 87.7888C16.2058 90.655 16.2507 93.0127 16.4455 95.2059C16.5104 96.0483 16.5754 96.8907 16.6353 97.7332C16.7502 99.2834 16.865 100.834 17.0149 102.419C17.1297 103.251 17.2396 104.089 17.3445 104.921C17.5442 106.461 17.749 108.056 18.0087 109.626C18.653 113.305 19.467 116.914 20.4409 120.433C18.658 116.52 14.3279 110.932 4.05471 110.22C3.73008 110.205 3.41545 110.339 3.21068 110.594C3.01091 110.848 2.94598 111.187 3.04088 111.491C3.78502 113.878 7.98021 125.537 19.0575 125.537C19.3372 125.537 19.6169 125.532 19.9065 125.518C20.411 125.493 20.8804 125.243 21.1851 124.84C21.3649 124.6 21.4647 124.321 21.5047 124.037C22.963 128.683 24.711 133.164 26.7337 137.441C26.8885 137.795 27.0583 138.134 27.2231 138.478C25.2055 134.47 19.9914 127.781 7.73549 128.229C7.40587 128.239 7.10122 128.414 6.92143 128.698C6.74163 128.977 6.71666 129.326 6.84651 129.63C7.87034 132.003 13.2342 143.058 24.0268 143.058C24.8758 143.058 25.7598 142.989 26.6788 142.844C27.2032 142.759 27.6626 142.45 27.9373 141.997C28.207 141.548 28.262 141.01 28.0921 140.516C27.9523 140.108 27.7425 139.574 27.4579 138.961C27.6776 139.39 27.9024 139.813 28.1221 140.227L28.4018 140.751C28.6016 141.119 28.7963 141.488 28.9911 141.857C29.3657 142.565 29.7353 143.268 30.1448 143.981L32.0326 147.096C32.1425 147.275 32.2524 147.455 32.3573 147.634C32.567 147.983 32.7768 148.332 33.0065 148.666L34.0204 150.157C36.3876 153.78 39.2693 157.424 43.09 161.636C43.6343 162.229 44.2037 162.813 44.763 163.391C41.1172 160.594 33.7806 157.12 23.2127 162.314C22.9131 162.459 22.7083 162.743 22.6634 163.077C22.6184 163.406 22.7333 163.735 22.978 163.954C24.4763 165.33 30.6342 170.529 37.9958 170.529C40.7177 170.529 43.6044 169.816 46.4811 167.942C46.9256 167.653 47.2202 167.179 47.2801 166.656C47.3151 166.362 47.2702 166.072 47.1653 165.808C52.6889 171.162 58.8469 175.947 65.5642 180.049C67.2223 181.051 68.8754 181.983 70.5285 182.876C66.3483 180.822 57.9329 178.604 48.1591 186.5C47.8994 186.709 47.7596 187.038 47.7846 187.372C47.8095 187.706 47.9993 188 48.289 188.164C49.7923 189.027 55.0812 191.783 61.0444 191.783C64.9848 191.783 69.225 190.577 72.8608 186.824C73.2404 186.435 73.4202 185.901 73.3652 185.363C73.3103 184.835 73.0256 184.361 72.5861 184.062C72.3864 183.927 72.1466 183.773 71.8769 183.613C74.0694 184.765 76.2519 185.822 78.4044 186.764C80.2224 187.551 81.9354 188.249 83.5835 188.872C78.829 188.144 71.9269 188.937 65.0448 196.259C64.815 196.504 64.7201 196.843 64.7951 197.172C64.865 197.496 65.0947 197.765 65.3994 197.889C66.7428 198.433 70.8881 199.923 75.6676 199.923C80.3772 199.903 85.7061 198.448 89.5567 193.194ZM34.8943 88.4817C34.7945 99.9912 27.4928 103.635 24.3015 104.677C24.2615 104.692 24.2216 104.687 24.1816 104.662C24.1567 104.647 24.1117 104.607 24.1017 104.537C22.7333 94.9866 31.6631 89.9671 34.8943 88.4817ZM42.8452 51.9144C38.0557 60.9515 30.7841 60.8867 27.7925 60.3933C27.7825 60.3833 27.7725 60.3534 27.7825 60.3235C30.5593 52.2534 39.544 51.7998 42.8452 51.9144ZM49.4826 30.974C50.7162 30.974 51.795 31.0936 52.5591 31.2132C47.395 38.426 41.1372 37.5686 38.655 36.8708C41.0773 31.9759 45.9267 30.974 49.4826 30.974ZM58.1976 23.811C52.9037 27.375 48.7884 25.4859 47.0504 24.3095C50.936 20.7156 56.0251 22.6895 58.1976 23.811ZM68.7355 3.45379C65.9887 8.97676 61.6287 9.38052 59.581 9.226C61.1343 4.36099 66.3483 3.56345 68.7355 3.45379ZM51.5552 12.6155C49.1979 8.08451 52.3094 3.83262 53.9225 2.06806C55.9003 7.91005 53.1085 11.2797 51.5552 12.6155ZM43.5794 8.87209C46.9305 15.8655 43.7592 20.3617 42.0861 22.0913C38.4253 16.7877 41.9113 11.0803 43.5794 8.87209ZM33.0614 33.3666C27.5128 28.5415 29.93 21.2589 31.1337 18.5174C36.7972 25.3313 34.3799 31.1484 33.0614 33.3666ZM20.5858 58.1701C20.5708 58.1751 20.5458 58.1801 20.5158 58.1651C13.0394 54.0229 14.1681 45.1054 14.8573 41.8903C22.9331 48.1809 21.5946 55.3139 20.5858 58.1701ZM16.3556 74.1359C16.3356 74.1459 16.3007 74.1608 16.2557 74.1459C7.78044 71.1202 7.4658 61.6444 7.63561 58.2499C17.0898 63.3741 16.925 70.9856 16.3556 74.1359ZM19.9565 123.912C19.9365 123.937 19.8965 123.977 19.8266 123.982C19.5719 123.997 19.3222 124.002 19.0775 124.002C9.95794 124.002 5.93755 115.075 4.77389 111.815C16.2457 112.946 19.2323 120.528 19.9864 123.793C19.9914 123.838 19.9864 123.878 19.9565 123.912ZM26.6188 141.204C26.5989 141.234 26.5439 141.309 26.434 141.329C15.8812 143.014 10.2127 133.154 8.58452 129.739C8.69939 129.739 8.81425 129.739 8.92912 129.739C21.3599 129.739 25.4452 137.57 26.6388 141.015C26.6688 141.094 26.6438 141.164 26.6188 141.204ZM71.7521 185.737C64.0359 193.702 53.1684 188.997 49.7323 187.187C60.1704 179.167 68.5607 183.175 71.7221 185.308C71.802 185.363 71.827 185.443 71.832 185.498C71.837 185.542 71.837 185.647 71.7521 185.737ZM65.9787 14.6592C61.2741 18.6569 57.1039 17.3161 55.286 16.374C58.6321 12.5009 63.7413 13.8168 65.9787 14.6592ZM45.632 166.651C36.6873 172.493 27.4828 165.798 24.5962 163.341C36.1279 158.037 43.1649 163.595 45.687 166.282C45.7469 166.342 45.7519 166.416 45.7419 166.461C45.7469 166.496 45.7269 166.591 45.632 166.651ZM44.2187 160.599C40.458 156.457 37.6212 152.868 35.2939 149.304L34.2701 147.804C34.0603 147.495 33.8655 147.171 33.6707 146.847C33.5609 146.657 33.446 146.473 33.3361 146.293L31.4633 143.203C31.0737 142.525 30.7091 141.832 30.3446 141.139C30.1498 140.766 29.95 140.392 29.7502 140.023L29.4706 139.504C29.0061 138.637 28.5266 137.74 28.1271 136.813C24.1217 128.354 21.23 119.122 19.522 109.372C19.2673 107.837 19.0625 106.257 18.8677 104.732C18.7579 103.894 18.653 103.052 18.5381 102.249C18.3933 100.709 18.2784 99.1687 18.1685 97.6235C18.1086 96.7761 18.0437 95.9337 17.9738 95.0813C17.784 92.9479 17.739 90.645 17.8239 87.8387C17.9038 85.2616 18.0786 82.9089 18.3583 80.6408C18.8777 76.0998 19.7817 71.3445 21.0552 66.4945C22.2538 61.9086 23.822 57.3327 25.7149 52.8964C27.6427 48.3753 29.8351 44.0686 32.2224 40.1058V40.1008C34.5198 36.2477 37.2117 32.4145 40.453 28.3869C41.7515 26.7769 43.1149 25.1918 44.5433 23.6416C43.1948 25.2865 41.9263 26.9364 40.7327 28.6013C35.184 36.0982 30.5893 44.4574 27.0683 53.4397C23.5474 62.6015 21.3199 71.828 20.4459 80.8602C19.9065 86.3532 19.8216 90.8145 20.1812 94.9069C20.2511 95.7393 20.3211 96.5717 20.386 97.4042C20.5058 98.9295 20.6307 100.455 20.7855 102.005C20.9054 102.837 21.0203 103.67 21.1301 104.502C21.3299 105.968 21.5347 107.488 21.7844 108.974C23.3476 118.325 26.1194 127.392 30 135.886C30.3845 136.818 30.839 137.715 31.2835 138.582L31.5482 139.106C31.738 139.474 31.9228 139.843 32.1125 140.212C32.4522 140.89 32.7968 141.568 33.1713 142.256L34.9343 145.297C35.0392 145.471 35.1391 145.65 35.239 145.825C35.4337 146.164 35.6285 146.503 35.8433 146.832L36.7972 148.292C39.0596 151.866 41.7515 155.465 45.2774 159.617C48.5837 163.54 52.3593 167.059 55.281 169.691C58.757 172.792 62.5376 175.733 66.5281 178.429C68.1912 179.571 69.9242 180.687 71.7121 181.774C69.9292 180.817 68.1412 179.8 66.3483 178.719C58.0678 173.664 50.6213 167.563 44.2187 160.599ZM66.7029 196.723C75.9423 187.357 84.8071 190.183 88.2332 191.868C88.3231 191.913 88.358 191.988 88.368 192.042C88.378 192.082 88.393 192.187 88.3181 192.287C81.7656 201.229 70.3487 198.044 66.7029 196.723ZM58.3225 178.37C58.752 178.041 59.0117 177.542 59.0367 176.999C59.0616 176.465 58.8519 175.957 58.4573 175.598C56.0201 173.37 47.0604 166.696 33.9354 174.412C33.6458 174.581 33.461 174.885 33.436 175.219C33.411 175.553 33.5559 175.872 33.8156 176.077C35.3788 177.308 41.4868 181.734 48.5537 181.734C51.73 181.729 55.0912 180.837 58.3225 178.37ZM35.3938 175.344C46.9006 168.949 54.6067 174.148 57.4235 176.725C57.4934 176.789 57.5084 176.869 57.5034 176.929C57.5034 176.969 57.4884 177.074 57.3886 177.148C48.5787 183.893 38.5252 177.637 35.3938 175.344ZM35.7034 156.427C36.1879 156.208 36.5524 155.789 36.6973 155.281C36.8421 154.777 36.7522 154.244 36.4626 153.815C34.6646 151.173 27.7076 142.884 13.6038 147.236C13.2891 147.335 13.0394 147.584 12.9395 147.898C12.8396 148.213 12.9046 148.556 13.1093 148.816C14.5077 150.58 20.8005 157.848 29.2858 157.848C31.3135 157.848 33.466 157.434 35.7034 156.427ZM14.8224 148.477C27.0483 145.042 33.1214 151.632 35.194 154.678C35.2439 154.747 35.234 154.817 35.224 154.867C35.214 154.902 35.179 154.987 35.0791 155.036C25.3253 159.398 17.2845 151.353 14.8224 148.477ZM41.8664 150.735C41.8913 150.735 41.9163 150.735 41.9463 150.735C42.4307 150.735 42.8952 150.535 43.2248 150.176C45.3274 147.889 51.6202 139.469 44.3385 127.147C44.1737 126.863 43.8741 126.679 43.5444 126.659C43.2098 126.639 42.9002 126.779 42.6954 127.033C41.0173 129.156 33.0165 140.257 40.5479 150.047C40.8625 150.461 41.347 150.71 41.8664 150.735ZM43.4146 128.618C49.3678 139.34 44.5033 146.513 42.0911 149.14C42.0412 149.195 41.9762 149.2 41.9363 149.2C41.8963 149.2 41.8214 149.185 41.7615 149.11C35.4837 140.945 41.2321 131.609 43.4146 128.618ZM51.2306 162.917C51.2506 162.917 51.2756 162.917 51.2955 162.917C51.81 162.897 52.2844 162.658 52.599 162.254C54.5069 159.807 60.1004 150.904 51.8449 139.205C51.6551 138.936 51.3505 138.767 51.0159 138.782C50.6862 138.787 50.3816 138.951 50.2018 139.225C48.6985 141.478 41.6266 153.182 49.9221 162.339C50.2567 162.708 50.7312 162.917 51.2306 162.917ZM51.0458 140.751C57.843 150.954 53.5779 158.501 51.3904 161.312C51.3455 161.372 51.2856 161.387 51.2406 161.387C51.2006 161.387 51.1257 161.382 51.0608 161.312C44.1387 153.671 49.113 143.906 51.0458 140.751ZM61.8684 172.438C61.9283 172.438 61.9883 172.433 62.0482 172.428C62.5626 172.373 63.0171 172.104 63.3068 171.68C65.0548 169.113 70.054 159.872 61.0643 148.731C60.8596 148.477 60.5399 148.332 60.2053 148.362C59.8757 148.387 59.581 148.571 59.4212 148.856C58.0678 151.203 51.77 163.341 60.6398 171.939C60.9694 172.258 61.4089 172.438 61.8684 172.438ZM60.3601 150.326C67.8066 160.071 64.0359 167.877 62.0332 170.823C61.9933 170.883 61.9333 170.903 61.8884 170.908C61.8484 170.913 61.7735 170.908 61.7036 170.843C54.3071 163.665 58.6371 153.601 60.3601 150.326ZM68.7705 157.658C68.4559 157.753 68.2111 157.997 68.1113 158.311C67.3022 160.898 63.8112 174.113 74.3541 180.573C74.6338 180.747 74.9534 180.832 75.278 180.832C75.4678 180.832 75.6576 180.802 75.8374 180.742C76.3268 180.578 76.7114 180.214 76.9012 179.74C78.0449 176.854 80.9016 166.745 69.6894 157.833C69.4347 157.624 69.0901 157.559 68.7705 157.658ZM75.4728 179.172C75.4478 179.242 75.3929 179.272 75.348 179.287C75.318 179.297 75.2381 179.317 75.1532 179.262C66.3633 173.873 68.3859 163.107 69.3498 159.533C78.7541 167.423 76.7863 175.862 75.4728 179.172ZM90.3208 188.683C90.5206 188.753 90.7303 188.787 90.9351 188.787C91.2697 188.787 91.5993 188.698 91.894 188.523C92.3634 188.244 92.6781 187.781 92.768 187.247C93.3174 183.873 93.9966 172.328 79.8228 165.38C79.5182 165.23 79.1636 165.24 78.8689 165.41C78.5743 165.574 78.3845 165.873 78.3545 166.207C78.0998 169.173 77.4655 184.222 90.3208 188.683ZM79.8328 167.099C92.0089 173.415 91.889 183.085 91.2497 186.998C91.2297 187.108 91.1598 187.172 91.1049 187.207C91.02 187.257 90.9151 187.267 90.8202 187.237C79.8877 183.439 79.6231 171.072 79.8328 167.099ZM33.5659 137.226C33.6757 137.246 33.7906 137.256 33.9005 137.256C34.29 137.256 34.6746 137.122 34.9793 136.872C37.3765 134.938 44.783 127.601 39.4541 114.457C39.3293 114.153 39.0646 113.928 38.7399 113.858C38.4203 113.789 38.0857 113.883 37.851 114.103C35.8932 115.942 26.4191 125.647 32.3623 136.349C32.617 136.813 33.0515 137.132 33.5659 137.226ZM38.3254 115.792C42.5705 127.152 36.7572 133.473 34.0104 135.686C33.9554 135.731 33.8955 135.731 33.8555 135.721C33.8156 135.711 33.7457 135.691 33.7057 135.611C28.7614 126.704 35.7384 118.414 38.3254 115.792ZM26.474 120.852C26.6238 121.335 26.9784 121.724 27.4429 121.924C27.6527 122.013 27.8774 122.058 28.1021 122.058C28.3618 122.058 28.6265 121.998 28.8613 121.874C31.4833 120.533 39.8636 115.12 37.4664 101.776C37.4065 101.457 37.1967 101.183 36.897 101.053C36.6024 100.918 36.2578 100.943 35.9831 101.108C33.7956 102.444 23.023 109.666 26.474 120.852ZM28.1671 120.513C28.1271 120.533 28.0872 120.533 28.0422 120.513C28.0122 120.503 27.9623 120.473 27.9423 120.403C25.0956 111.182 33.1314 104.836 36.093 102.862C37.791 114.247 31.1536 118.983 28.1671 120.513ZM14.9872 107.194C15.0271 107.199 15.0721 107.199 15.112 107.199C15.5715 107.199 16.016 107.015 16.3406 106.681C16.6902 106.322 16.86 105.838 16.8101 105.345C16.5104 102.419 14.5027 92.6638 1.17801 90.0419C0.858378 89.982 0.528756 90.0768 0.294025 90.306C0.0642889 90.5353 -0.0405908 90.8593 0.0143462 91.1734C0.463831 93.6956 3.29558 106.342 14.9872 107.194ZM15.2818 105.494C15.2868 105.539 15.2719 105.574 15.2419 105.609C15.2219 105.634 15.172 105.664 15.102 105.664C5.4631 104.961 2.45655 95.186 1.68743 91.7117C12.9295 94.2688 14.9422 102.16 15.2818 105.494ZM13.8884 90.8693C14.0632 90.9241 14.238 90.9541 14.4128 90.9541C14.7325 90.9541 15.0471 90.8643 15.3218 90.6899C15.7463 90.4257 16.026 89.992 16.0909 89.5035C16.4954 86.5875 16.855 76.6382 4.53416 70.9457C4.2395 70.8111 3.8949 70.8261 3.61522 70.9906C3.33554 71.1551 3.15574 71.4492 3.13577 71.7682C2.97595 74.3303 2.72624 87.2804 13.8884 90.8693ZM4.63405 72.6904C14.9522 77.8295 15.0371 85.9744 14.5727 89.2942C14.5677 89.334 14.5427 89.3689 14.5027 89.3939C14.4778 89.4088 14.4228 89.4387 14.3529 89.4138C5.15845 86.4529 4.55414 76.2394 4.63405 72.6904ZM22.4286 90.5603C22.7333 90.8145 23.1179 90.9541 23.5074 90.9541C23.6023 90.9541 23.7022 90.9441 23.8021 90.9291C26.7037 90.4157 36.3027 87.6891 37.9259 74.2306C37.9658 73.9066 37.841 73.5876 37.5962 73.3683C37.3515 73.1539 37.0169 73.0742 36.7073 73.1539C34.2151 73.787 21.7994 77.5454 21.8193 89.2543C21.8143 89.7577 22.0391 90.2363 22.4286 90.5603ZM36.2878 74.8587C34.5747 86.2386 26.8336 88.8306 23.5324 89.4188C23.4874 89.4238 23.4475 89.4138 23.4125 89.3839C23.3875 89.364 23.3476 89.3191 23.3476 89.2493C23.3326 79.5991 32.8767 75.8805 36.2878 74.8587ZM24.746 76.4587C27.7226 76.4587 36.8072 75.4319 40.6328 63.4937C40.7327 63.1896 40.6677 62.8557 40.4729 62.6015C40.2782 62.3472 39.9735 62.2077 39.6539 62.2326C37.2367 62.3771 25.0656 63.6582 22.998 74.5097C22.9081 74.9933 23.033 75.4818 23.3426 75.8656C23.6472 76.2394 24.0967 76.4587 24.5812 76.4637C24.6311 76.4587 24.6861 76.4587 24.746 76.4587ZM24.5063 74.7939C26.1843 65.9711 35.5136 64.1866 38.9048 63.8327C35.2989 73.9515 27.7475 74.9733 24.6012 74.9285L24.5912 75.6961L24.5312 74.8936C24.5162 74.8786 24.4963 74.8437 24.5063 74.7939ZM24.6261 46.6955C24.9108 46.9248 25.2554 47.0444 25.615 47.0444C25.7149 47.0444 25.8148 47.0344 25.9146 47.0145C26.3641 46.9248 26.7487 46.6506 26.9734 46.2519C28.202 44.0486 31.5782 36.2028 23.4974 27.8486C23.2777 27.6243 22.963 27.5246 22.6534 27.5694C22.3437 27.6243 22.079 27.8237 21.9492 28.1078C21.0203 30.1016 16.8101 40.375 24.6261 46.6955ZM22.988 29.5583C29.3907 36.6863 26.9934 43.0517 25.625 45.5091C25.625 45.5091 25.605 45.5191 25.59 45.5042C19.3871 40.4846 21.8094 32.4793 22.988 29.5583ZM49.5076 41.4118C49.3877 41.1227 49.133 40.9083 48.8234 40.8485C46.6659 40.3999 35.6984 38.6154 31.2835 47.6426C31.0787 48.0613 31.0687 48.5448 31.2585 48.9685C31.4433 49.3872 31.8029 49.7012 32.2424 49.8258C33.0115 50.0452 34.3899 50.3492 36.108 50.3492C39.8037 50.3492 45.0976 48.9436 49.4177 42.299C49.5975 42.0349 49.6275 41.7009 49.5076 41.4118ZM32.6669 48.3454C32.6669 48.3454 32.6519 48.3304 32.6619 48.3105C35.2589 43.0019 40.5179 41.9302 44.3385 41.9302C45.672 41.9302 46.8357 42.0598 47.6447 42.1894C42.1261 50.0202 35.3738 49.123 32.6669 48.3454Z" fill="#C4B454"/>
</svg>
